<?xml version="1.0" encoding="utf-8"?>
<!-- Generator: Adobe Illustrator 16.0.0, SVG Export Plug-In . SVG Version: 6.00 Build 0)  -->
<!DOCTYPE svg PUBLIC "-//W3C//DTD SVG 1.1//EN" "http://www.w3.org/Graphics/SVG/1.1/DTD/svg11.dtd">
<svg version="1.1" id="Capa_1" xmlns="http://www.w3.org/2000/svg" xmlns:xlink="http://www.w3.org/1999/xlink" x="0px" y="0px"
	 width="410px" height="93.009px" viewBox="0 0 410 93.009" enable-background="new 0 0 410 93.009" xml:space="preserve">
<g>
	<g>
		<g>
			<path fill="#33354E" d="M113.939,46.753H81.656l8.168-46.305h32.284l-1.801,10.034H99.599l-1.479,8.679h17.106l-1.798,10.033
				h-17.11l-1.285,7.524h20.708L113.939,46.753z"/>
			<path fill="#33354E" d="M142.301,46.753l0.386-10.101h-10.741l-3.151,10.101h-12.283l16.53-46.305h21.224l0.252,46.305H142.301z
				 M139.663,11.701l-5.078,16.335h8.424l0.708-16.335H139.663z"/>
			<path fill="#33354E" d="M170.534,33.569c0,2.958,2.131,4.436,6.401,4.436c4.263,0,6.397-1.331,6.397-3.988
				c0-1.416-0.73-2.572-2.188-3.473c-1.459-0.899-3.224-1.648-5.306-2.249c-2.077-0.6-4.159-1.297-6.235-2.091
				c-2.083-0.794-3.852-2.033-5.308-3.729c-1.461-1.693-2.188-3.808-2.188-6.338C162.108,5.377,169.033,0,182.881,0
				c5.059,0,8.887,0.952,11.482,2.861c2.594,1.905,3.887,4.551,3.887,7.938c0,1.246-0.159,2.435-0.483,3.569
				c-0.322,1.139-0.653,1.942-0.997,2.414l-0.511,0.771h-11.385c0.941-0.985,1.415-2.229,1.415-3.729
				c0-2.789-1.822-4.181-5.462-4.181c-4.589,0-6.887,1.455-6.887,4.375c0,1.455,0.733,2.617,2.187,3.471
				c1.461,0.857,3.229,1.535,5.308,2.022c2.079,0.493,4.17,1.105,6.272,1.836c2.097,0.73,3.876,1.939,5.336,3.633
				c1.458,1.692,2.187,3.89,2.187,6.592c0,5.445-1.63,9.487-4.889,12.121c-3.258,2.64-8.276,3.955-15.048,3.955
				c-6.776,0-11.406-1.197-13.892-3.598c-1.843-1.801-2.766-4.288-2.766-7.461c0-1.201,0.131-2.511,0.386-3.921l0.197-1.031h11.571
				l-0.126,0.771C170.574,32.84,170.534,33.222,170.534,33.569z"/>
			<path fill="#33354E" d="M218.573,16.718l10.867-16.27h11.578l-19.807,28.487l-3.15,17.818H206.42l3.151-17.818l-9.774-28.487
				h12.283l5.018,16.27H218.573z"/>
		</g>
		<g>
			<path fill="#02B4B6" d="M244.878,34.315c-0.258,1.381-0.258,2.635,0,3.757c0.26,1.12,0.715,2.073,1.361,2.85
				c0.646,0.777,1.456,1.389,2.431,1.841c0.97,0.454,2.012,0.704,3.14,0.745c0.344,0,0.699-0.032,1.066-0.093
				c0.366-0.068,0.863-0.208,1.49-0.422c0.624-0.216,1.434-0.51,2.428-0.875c0.99-0.371,2.288-0.853,3.887-1.458l0.771,3.692
				l-5.563,1.876c-0.781,0.26-1.609,0.475-2.493,0.651c-0.888,0.171-1.634,0.254-2.236,0.254c-1.638,0-3.13-0.291-4.468-0.87
				c-1.338-0.583-2.462-1.414-3.365-2.493c-0.907-1.083-1.555-2.388-1.945-3.919c-0.391-1.531-0.409-3.272-0.068-5.212l0.135-0.648
				l3.559-20.268c0.301-1.815,0.908-3.507,1.816-5.085c0.906-1.574,1.811-2.774,2.719-3.594c0.949-0.86,1.691-1.503,2.232-1.911
				c0.541-0.411,1.094-0.766,1.652-1.067c0.474-0.216,1.186-0.527,2.135-0.943c0.952-0.403,2.27-0.61,3.951-0.61
				c0.606,0,1.316,0.106,2.138,0.325c0.821,0.215,1.556,0.431,2.202,0.647l4.728,2.006l-1.815,3.366l-5.244-2.201
				c-0.391-0.175-0.809-0.323-1.262-0.453c-0.455-0.132-0.897-0.195-1.332-0.195c-1.164,0-2.318,0.269-3.463,0.807
				c-1.146,0.543-2.179,1.266-3.105,2.172c-0.928,0.909-1.729,1.942-2.395,3.105c-0.672,1.168-1.112,2.379-1.33,3.63L244.878,34.315
				z"/>
			<path fill="#02B4B6" d="M277.97,1.161l-3.629,20.526h15.801l3.626-20.526h3.692l-7.966,45.263h-3.69l3.69-20.916h-15.802
				l-3.688,20.916h-3.627l7.964-45.263H277.97z"/>
			<path fill="#02B4B6" d="M298.108,46.424h-3.496l18.324-45.331h5.502l2.396,45.331H317.4l-0.709-12.629h-13.532L298.108,46.424z
				 M315.398,5.373h-0.845l-9.715,24.604h11.529L315.398,5.373z"/>
			<path fill="#02B4B6" d="M346.479,26.737l4.595,19.752h-3.622l-4.728-18.777c-0.867,0.126-1.727,0.193-2.593,0.193h-7.704
				l-3.241,18.583h-3.427l7.638-43.45c1.208-0.428,2.481-0.844,3.818-1.232c1.125-0.346,2.376-0.646,3.757-0.907
				c1.38-0.256,2.741-0.386,4.081-0.386c1.769,0,3.424,0.292,4.954,0.874s2.824,1.422,3.883,2.523
				c1.058,1.102,1.814,2.449,2.269,4.048c0.454,1.598,0.486,3.435,0.098,5.503c-0.258,1.471-0.693,2.905-1.297,4.307
				c-0.604,1.406-1.326,2.685-2.166,3.856c-0.844,1.163-1.808,2.189-2.885,3.071C348.832,25.586,347.689,26.266,346.479,26.737z
				 M343.821,4.267c-0.772,0-1.594,0.09-2.458,0.26c-0.863,0.174-1.659,0.367-2.396,0.585c-0.867,0.26-1.728,0.539-2.593,0.839
				l-3.238,18.196h7.188c3.11,0,5.777-0.926,7.999-2.784c2.221-1.854,3.635-4.489,4.241-7.9c0.301-1.683,0.301-3.108,0-4.272
				c-0.299-1.167-0.844-2.115-1.617-2.849c-0.776-0.734-1.783-1.262-3.015-1.587C346.701,4.431,345.333,4.267,343.821,4.267z"/>
			<path fill="#02B4B6" d="M365.389,13.53l-3.759,21.497c-0.219,1.212-0.196,2.333,0.065,3.369c0.262,1.035,0.709,1.942,1.356,2.72
				c0.651,0.777,1.437,1.393,2.369,1.844c0.922,0.456,1.928,0.682,3.009,0.682c0.43,0,1.068-0.086,1.91-0.262
				c0.84-0.172,2.146-0.69,3.918-1.551l2.201-12.24h3.626l-2.592,14.568c-2.676,1.293-4.833,2.115-6.471,2.463
				c-1.646,0.342-2.77,0.515-3.368,0.515c-1.729,0-3.261-0.344-4.603-1.032c-1.332-0.689-2.427-1.631-3.267-2.817
				c-0.845-1.187-1.416-2.568-1.718-4.146c-0.304-1.576-0.304-3.25,0-5.021l3.628-20.588c0.906-4.059,2.645-7.243,5.212-9.552
				c2.569-2.308,5.599-3.464,9.098-3.464c0.604,0.043,1.314,0.151,2.14,0.325c0.815,0.172,1.551,0.386,2.196,0.647l3.82,1.554
				l-1.942,3.691l-4.204-1.749c-1.037-0.428-1.941-0.646-2.725-0.646c-1.119,0-2.231,0.248-3.333,0.745
				c-1.101,0.498-2.101,1.165-3.011,2.006c-0.907,0.842-1.672,1.823-2.297,2.946C366.02,11.156,365.601,12.322,365.389,13.53z"/>
			<path fill="#02B4B6" d="M410,1.161l-0.646,3.688H394.78l-2.973,16.968h11.396l-0.71,3.755H391.09l-2.976,17.094h14.703
				l-0.648,3.757h-18.395l7.967-45.263H410z"/>
		</g>
	</g>
	<g>
		<path fill="#FFFFFF" d="M17.94,71.435c0.112-0.665,0.058-1.278-0.17-1.841c-0.218-0.559-0.567-1.041-1.022-1.458
			c-0.475-0.406-1.024-0.727-1.649-0.976c-0.645-0.243-1.29-0.356-1.961-0.356c-0.332,0-0.786,0.042-1.345,0.156
			c-0.56,0.118-1.126,0.265-1.703,0.449c-0.578,0.19-1.147,0.396-1.706,0.613c-0.557,0.229-1.022,0.476-1.392,0.731L2.853,92.449H0
			l4.416-25.256L3.41,65.958l2.352-1.95l1.4,1.724c1.079-0.521,2.122-0.948,3.154-1.278c1.023-0.343,1.999-0.504,2.928-0.504
			c1.646,0,3.124,0.352,4.451,1.062c1.325,0.71,2.131,1.81,2.423,3.3c0.674-0.9,1.393-1.62,2.161-2.179
			c0.756-0.563,1.534-0.998,2.311-1.315c0.785-0.314,1.554-0.542,2.293-0.678c0.748-0.119,1.457-0.189,2.121-0.189
			c1.345,0,2.453,0.238,3.334,0.721c0.87,0.493,1.536,1.109,1.979,1.875c0.446,0.769,0.73,1.603,0.843,2.524
			c0.113,0.902,0.096,1.808-0.056,2.708l-3.638,20.672h-2.898l3.57-20.287c0.113-0.71,0.142-1.37,0.085-2.005
			c-0.057-0.639-0.227-1.196-0.501-1.678c-0.275-0.483-0.701-0.879-1.261-1.178c-0.559-0.304-1.288-0.455-2.179-0.455
			c-2.348,0-4.167,0.666-5.455,1.995c-1.278,1.32-2.121,3.168-2.539,5.558l-3.124,18.05h-2.91L17.94,71.435z"/>
		<path fill="#FFFFFF" d="M54.662,89.714l0.898,1.002l-2.349,2.021l-1.287-1.518c-1.307,0.671-2.616,1.139-3.94,1.403
			c-1.326,0.256-2.36,0.387-3.106,0.387c-1.042,0-1.98-0.218-2.823-0.645c-0.834-0.424-1.526-1.002-2.065-1.734
			c-0.539-0.716-0.909-1.572-1.118-2.535c-0.208-0.975-0.208-1.999-0.028-3.079l0.558-3.124c0.191-1.077,0.551-2.102,1.1-3.051
			c0.53-0.948,1.202-1.782,2.008-2.483c0.795-0.707,1.688-1.27,2.68-1.677c0.987-0.413,2-0.613,3.04-0.613
			c0.266,0,0.664,0.018,1.176,0.055c0.529,0.039,1.098,0.108,1.704,0.219c0.626,0.112,1.213,0.274,1.791,0.475
			c0.579,0.206,1.07,0.472,1.488,0.813l0.33-1.901c0.143-0.855,0.143-1.707,0-2.54c-0.15-0.841-0.444-1.593-0.861-2.266
			c-0.436-0.67-0.965-1.209-1.591-1.62c-0.643-0.417-1.363-0.611-2.178-0.611c-0.304,0-0.852,0.092-1.658,0.271
			c-0.805,0.19-1.629,0.379-2.49,0.563c-1.006,0.227-2.085,0.483-3.24,0.786l-0.331-2.628c1.26-0.298,2.434-0.574,3.514-0.84
			c0.937-0.229,1.857-0.429,2.747-0.618c0.89-0.177,1.525-0.275,1.894-0.275c1.194,0,2.273,0.275,3.221,0.834
			c0.947,0.563,1.725,1.301,2.348,2.21c0.608,0.916,1.043,1.962,1.309,3.132c0.263,1.176,0.283,2.366,0.055,3.603L54.662,89.714z
			 M53.713,78.869c0-0.037-0.15-0.163-0.444-0.358c-0.302-0.21-0.71-0.429-1.231-0.676c-0.53-0.245-1.157-0.461-1.904-0.671
			c-0.749-0.196-1.543-0.3-2.396-0.3c-0.645,0-1.271,0.13-1.876,0.386c-0.615,0.265-1.176,0.618-1.686,1.061
			c-0.493,0.444-0.929,0.96-1.278,1.533c-0.351,0.581-0.588,1.204-0.691,1.875l-0.625,3.525c-0.228,1.306,0.038,2.423,0.758,3.38
			c0.72,0.952,1.723,1.422,2.992,1.422c0.55,0,1.212-0.103,1.981-0.304c0.767-0.205,1.505-0.432,2.206-0.698
			c0.815-0.294,1.686-0.634,2.577-1.009L53.713,78.869z"/>
		<path fill="#FFFFFF" d="M81.655,68.581c0.293,0.938,0.397,1.875,0.303,2.822c-0.086,0.958-0.237,1.934-0.417,2.938l-3.193,18.107
			h-2.954l3.467-19.843c0.332-1.891,0.094-3.354-0.729-4.354c-0.825-1.004-1.866-1.508-3.134-1.508
			c-0.702,0-1.631,0.103-2.767,0.335c-1.135,0.223-2.48,0.781-4.053,1.676l-4.13,23.694h-2.851l4.424-25.201l-1.014-1.176
			l2.349-2.015l1.392,1.674c2.197-1.144,4.234-1.724,6.1-1.724c1.667,0,3.182,0.343,4.526,1.035
			C80.31,65.731,81.21,66.906,81.655,68.581z"/>
		<path fill="#FFFFFF" d="M88.634,85.185l3.192-17.938h-4.746l0.493-2.795h4.755l1.95-11.116h2.974l-1.959,11.116h5.142
			l-0.511,2.795h-5.134L91.609,85.46c-0.152,0.787-0.169,1.431-0.057,1.936c0.114,0.498,0.323,0.904,0.645,1.228
			c0.303,0.315,0.692,0.538,1.136,0.674c0.454,0.126,0.929,0.188,1.459,0.188h1.231l-0.568,3.022h-1.506
			c-0.928,0-1.77-0.144-2.508-0.416c-0.749-0.288-1.365-0.711-1.849-1.289c-0.482-0.579-0.822-1.339-1.004-2.266
			C88.398,87.612,88.417,86.493,88.634,85.185z"/>
		<path fill="#FFFFFF" d="M103.278,71.891c0.189-1.121,0.567-2.173,1.117-3.137c0.569-0.966,1.25-1.811,2.074-2.508
			c0.824-0.717,1.723-1.274,2.71-1.68c0.993-0.419,2.016-0.618,3.096-0.618h1.913c1.042,0,1.99,0.199,2.87,0.618
			c0.88,0.405,1.6,0.963,2.148,1.68c0.569,0.697,0.966,1.542,1.204,2.508c0.246,0.964,0.256,2.016,0.029,3.137l-0.286,1.836
			c-0.292,1.561-0.813,2.877-1.552,3.938c-0.759,1.063-1.668,1.937-2.747,2.606c-1.081,0.662-2.292,1.144-3.628,1.421
			c-1.345,0.286-2.737,0.416-4.196,0.416c-0.596,0-1.192-0.022-1.78-0.054c-0.605-0.032-1.193-0.087-1.799-0.162l-0.607,3.352
			c0,1.485,0.493,2.671,1.479,3.55c0.984,0.871,2.206,1.312,3.655,1.312c0.151,0,0.644-0.087,1.459-0.249
			c0.814-0.169,1.693-0.347,2.632-0.531c1.08-0.227,2.282-0.492,3.627-0.787l0.103,2.966c-1.411,0.298-2.688,0.541-3.844,0.72
			c-0.977,0.189-1.913,0.363-2.823,0.514c-0.917,0.142-1.468,0.217-1.647,0.217c-1.193,0-2.293-0.217-3.297-0.644
			c-1.012-0.43-1.855-1.035-2.518-1.821c-0.674-0.774-1.157-1.695-1.46-2.763c-0.294-1.062-0.33-2.226-0.113-3.489L103.278,71.891z
			 M111.555,78.983h0.115c0.663,0,1.307-0.142,1.932-0.417c0.606-0.283,1.166-0.65,1.667-1.116c0.511-0.467,0.927-1.009,1.259-1.605
			c0.331-0.584,0.56-1.217,0.673-1.891l0.389-2.352c0.152-0.887,0.122-1.645-0.085-2.257c-0.209-0.618-0.55-1.111-1.062-1.485
			c-0.502-0.374-1.099-0.641-1.78-0.813c-0.702-0.166-1.432-0.243-2.217-0.243c-0.7,0-1.402,0.102-2.094,0.33
			c-0.691,0.229-1.318,0.542-1.866,0.947c-0.568,0.417-1.042,0.917-1.43,1.513c-0.389,0.601-0.663,1.262-0.805,2.008l-1.287,7.326
			L111.555,78.983z"/>
		<path fill="#FFFFFF" d="M143.522,68.581c0.294,0.938,0.396,1.875,0.303,2.822c-0.085,0.958-0.237,1.934-0.417,2.938l-3.193,18.107
			h-2.955l3.468-19.843c0.332-1.891,0.095-3.354-0.729-4.354c-0.825-1.004-1.867-1.508-3.135-1.508c-0.703,0-1.63,0.103-2.767,0.335
			c-1.136,0.223-2.482,0.781-4.053,1.676l-4.131,23.694h-2.85l4.423-25.201l-1.012-1.176l2.348-2.015l1.393,1.674
			c2.197-1.144,4.232-1.724,6.1-1.724c1.666,0,3.182,0.343,4.526,1.035C142.177,65.731,143.076,66.906,143.522,68.581z"/>
		<path fill="#FFFFFF" d="M150.389,71.891c0.189-1.121,0.569-2.173,1.117-3.137c0.569-0.966,1.252-1.811,2.076-2.508
			c0.823-0.717,1.723-1.274,2.708-1.68c0.995-0.419,2.018-0.618,3.097-0.618h1.912c1.042,0,1.989,0.199,2.87,0.618
			c0.88,0.405,1.602,0.963,2.15,1.68c0.568,0.697,0.966,1.542,1.203,2.508c0.247,0.964,0.256,2.016,0.029,3.137l-0.285,1.836
			c-0.293,1.561-0.813,2.877-1.553,3.938c-0.757,1.063-1.667,1.937-2.747,2.606c-1.08,0.662-2.292,1.144-3.626,1.421
			c-1.346,0.286-2.74,0.416-4.196,0.416c-0.597,0-1.194-0.022-1.781-0.054c-0.606-0.032-1.194-0.087-1.801-0.162l-0.605,3.352
			c0,1.485,0.491,2.671,1.477,3.55c0.985,0.871,2.206,1.312,3.656,1.312c0.152,0,0.645-0.087,1.458-0.249
			c0.816-0.169,1.697-0.347,2.634-0.531c1.081-0.227,2.282-0.492,3.626-0.787l0.106,2.966c-1.412,0.298-2.69,0.541-3.847,0.72
			c-0.976,0.189-1.914,0.363-2.823,0.514c-0.918,0.142-1.468,0.217-1.648,0.217c-1.193,0-2.292-0.217-3.295-0.644
			c-1.013-0.43-1.856-1.035-2.52-1.821c-0.672-0.774-1.155-1.695-1.457-2.763c-0.294-1.062-0.333-2.226-0.116-3.489L150.389,71.891z
			 M158.668,78.983h0.112c0.663,0,1.308-0.142,1.933-0.417c0.606-0.283,1.165-0.65,1.666-1.116c0.512-0.467,0.928-1.009,1.26-1.605
			c0.333-0.584,0.559-1.217,0.672-1.891l0.389-2.352c0.151-0.887,0.123-1.645-0.086-2.257c-0.208-0.618-0.549-1.111-1.06-1.485
			c-0.502-0.374-1.099-0.641-1.781-0.813c-0.701-0.166-1.429-0.243-2.215-0.243c-0.701,0-1.403,0.102-2.094,0.33
			c-0.693,0.229-1.317,0.542-1.866,0.947c-0.567,0.417-1.042,0.917-1.431,1.513c-0.388,0.601-0.662,1.262-0.804,2.008l-1.289,7.326
			L158.668,78.983z"/>
		<path fill="#FFFFFF" d="M173.536,85.185l3.183-17.938h-4.754l0.511-2.795h4.746l1.959-11.116h2.956l-1.951,11.116h5.133
			l-0.493,2.795h-5.153l-3.182,18.213c-0.151,0.787-0.169,1.431-0.057,1.936c0.114,0.498,0.332,0.904,0.644,1.228
			c0.323,0.315,0.701,0.538,1.155,0.674c0.435,0.126,0.929,0.188,1.439,0.188h1.232l-0.548,3.022h-1.516
			c-0.929,0-1.762-0.144-2.519-0.416c-0.739-0.288-1.355-0.711-1.837-1.289c-0.484-0.579-0.816-1.339-1.006-2.266
			C173.29,87.612,173.31,86.493,173.536,85.185z"/>
		<path fill="#FFFFFF" d="M188.179,71.891c0.191-1.121,0.551-2.173,1.118-3.137c0.549-0.966,1.25-1.811,2.065-2.508
			c0.813-0.717,1.724-1.274,2.709-1.68c0.984-0.419,2.026-0.618,3.107-0.618h1.893c1.042,0,2.008,0.199,2.879,0.618
			c0.872,0.405,1.593,0.963,2.161,1.68c0.549,0.697,0.947,1.542,1.193,2.508c0.247,0.964,0.255,2.016,0.03,3.137l-0.276,1.836
			c-0.303,1.561-0.824,2.877-1.572,3.938c-0.74,1.063-1.649,1.937-2.728,2.606c-1.09,0.662-2.292,1.144-3.637,1.421
			c-1.345,0.286-2.748,0.416-4.197,0.416c-0.596,0-1.183-0.022-1.789-0.054c-0.588-0.032-1.193-0.087-1.781-0.162l-0.624,3.352
			c0,1.485,0.492,2.671,1.487,3.55c0.984,0.871,2.205,1.312,3.664,1.312c0.143,0,0.626-0.087,1.45-0.249
			c0.824-0.169,1.696-0.347,2.623-0.531c1.08-0.227,2.293-0.492,3.637-0.787l0.114,2.966c-1.42,0.298-2.709,0.541-3.864,0.72
			c-0.966,0.189-1.903,0.363-2.822,0.514c-0.91,0.142-1.459,0.217-1.649,0.217c-1.193,0-2.291-0.217-3.295-0.644
			c-1.004-0.43-1.837-1.035-2.519-1.821c-0.663-0.774-1.146-1.695-1.439-2.763c-0.303-1.062-0.341-2.226-0.114-3.489L188.179,71.891
			z M196.448,78.983h0.113c0.673,0,1.317-0.142,1.922-0.417c0.616-0.283,1.176-0.65,1.686-1.116c0.494-0.467,0.91-1.009,1.25-1.605
			c0.343-0.584,0.561-1.217,0.674-1.891l0.388-2.352c0.153-0.887,0.123-1.645-0.075-2.257c-0.209-0.618-0.569-1.111-1.062-1.485
			c-0.511-0.374-1.108-0.641-1.799-0.813c-0.682-0.166-1.42-0.243-2.197-0.243c-0.72,0-1.412,0.102-2.104,0.33
			c-0.681,0.229-1.307,0.542-1.876,0.947c-0.549,0.417-1.022,0.917-1.419,1.513c-0.398,0.601-0.664,1.262-0.815,2.008l-1.289,7.326
			L196.448,78.983z"/>
		<path fill="#FFFFFF" d="M223.487,84.183c-0.178,0.889-0.17,1.706,0.039,2.421c0.2,0.731,0.53,1.355,1.004,1.881
			c0.464,0.521,1.032,0.914,1.705,1.202c0.663,0.271,1.414,0.418,2.236,0.418c0.368,0,0.843-0.048,1.419-0.146
			c0.577-0.082,1.146-0.189,1.708-0.304c0.671-0.146,1.343-0.309,2.006-0.499l0.455,2.563c-0.787,0.266-1.535,0.478-2.236,0.617
			c-0.635,0.152-1.307,0.287-2.008,0.401c-0.721,0.103-1.327,0.158-1.855,0.158c-1.221,0-2.332-0.206-3.315-0.64
			c-0.993-0.429-1.817-1.036-2.463-1.815c-0.652-0.785-1.115-1.702-1.401-2.773c-0.274-1.063-0.305-2.227-0.076-3.483l2.01-11.692
			c0.227-1.255,0.66-2.42,1.305-3.482c0.664-1.062,1.449-1.967,2.39-2.72c0.926-0.737,1.959-1.322,3.096-1.75
			c1.135-0.438,2.319-0.644,3.552-0.644c0.588,0,1.21,0.075,1.836,0.215c0.635,0.153,1.213,0.325,1.734,0.504
			c0.637,0.19,1.231,0.418,1.791,0.672l-1.063,2.407c-0.521-0.191-1.061-0.354-1.621-0.5c-0.482-0.151-1.012-0.287-1.563-0.389
			c-0.566-0.114-1.098-0.175-1.628-0.175c-0.814,0-1.611,0.142-2.368,0.418c-0.766,0.287-1.455,0.683-2.102,1.204
			c-0.625,0.52-1.175,1.137-1.65,1.846c-0.462,0.704-0.771,1.505-0.916,2.394L223.487,84.183z"/>
		<path fill="#FFFFFF" d="M256.694,84.801c-0.3,1.712-0.861,3.082-1.686,4.128c-0.813,1.039-1.722,1.852-2.727,2.434
			c-1.003,0.578-2.02,0.959-3.023,1.146c-1.011,0.19-1.863,0.271-2.564,0.271c-0.719,0-1.533-0.081-2.463-0.271
			c-0.929-0.187-1.798-0.567-2.596-1.146c-0.803-0.582-1.422-1.395-1.854-2.434c-0.417-1.046-0.493-2.416-0.19-4.128l2.235-12.91
			c0.304-1.718,0.853-3.1,1.677-4.141c0.823-1.045,1.724-1.846,2.717-2.404c0.986-0.563,1.969-0.933,2.985-1.122
			c1.002-0.177,1.864-0.275,2.565-0.275c0.713,0,1.535,0.099,2.492,0.275c0.955,0.189,1.808,0.559,2.604,1.122
			c0.775,0.559,1.391,1.359,1.837,2.404c0.457,1.041,0.521,2.423,0.228,4.141L256.694,84.801z M254.176,84.4l2.12-12.125
			c0.23-1.23,0.182-2.204-0.13-2.93c-0.325-0.733-0.758-1.297-1.317-1.681c-0.561-0.39-1.164-0.655-1.82-0.783
			c-0.651-0.127-1.221-0.191-1.703-0.191c-0.48,0-1.088,0.064-1.809,0.191c-0.739,0.128-1.438,0.394-2.133,0.783
			c-0.689,0.384-1.315,0.947-1.9,1.681c-0.568,0.726-0.968,1.699-1.195,2.93L242.167,84.4c-0.228,1.23-0.188,2.204,0.135,2.936
			c0.32,0.731,0.754,1.302,1.314,1.708c0.559,0.406,1.174,0.683,1.846,0.813c0.662,0.124,1.25,0.189,1.725,0.189
			c0.492,0,1.081-0.065,1.799-0.189c0.701-0.13,1.412-0.406,2.121-0.813c0.701-0.406,1.338-0.977,1.896-1.708
			S253.95,85.63,254.176,84.4z"/>
		<path fill="#FFFFFF" d="M282.685,68.581c0.285,0.938,0.398,1.875,0.304,2.822c-0.095,0.958-0.235,1.934-0.417,2.938l-3.192,18.107
			h-2.965l3.468-19.843c0.341-1.891,0.094-3.354-0.721-4.354c-0.824-1.004-1.865-1.508-3.135-1.508
			c-0.709,0-1.628,0.103-2.766,0.335c-1.135,0.223-2.489,0.781-4.055,1.676l-4.137,23.694h-2.843l4.415-25.201l-1.005-1.176
			l2.351-2.015l1.392,1.674c2.195-1.144,4.234-1.724,6.09-1.724c1.676,0,3.183,0.343,4.526,1.035
			C281.341,65.731,282.229,66.906,282.685,68.581z"/>
		<path fill="#FFFFFF" d="M289.553,71.891c0.188-1.121,0.559-2.173,1.118-3.137c0.557-0.966,1.251-1.811,2.074-2.508
			c0.813-0.717,1.723-1.274,2.708-1.68c0.985-0.419,2.017-0.618,3.098-0.618h1.903c1.039,0,1.999,0.199,2.878,0.618
			c0.873,0.405,1.592,0.963,2.149,1.68c0.561,0.697,0.959,1.542,1.204,2.508c0.244,0.964,0.244,2.016,0.021,3.137l-0.277,1.836
			c-0.292,1.561-0.821,2.877-1.562,3.938c-0.747,1.063-1.659,1.937-2.736,2.606c-1.092,0.662-2.294,1.144-3.626,1.421
			c-1.348,0.286-2.747,0.416-4.209,0.416c-0.586,0-1.182-0.022-1.777-0.054c-0.597-0.032-1.195-0.087-1.791-0.162l-0.616,3.352
			c0,1.485,0.494,2.671,1.478,3.55c0.986,0.871,2.215,1.312,3.664,1.312c0.143,0,0.636-0.087,1.449-0.249
			c0.824-0.169,1.703-0.347,2.634-0.531c1.081-0.227,2.292-0.492,3.638-0.787l0.104,2.966c-1.412,0.298-2.698,0.541-3.855,0.72
			c-0.967,0.189-1.912,0.363-2.822,0.514c-0.907,0.142-1.457,0.217-1.646,0.217c-1.195,0-2.291-0.217-3.295-0.644
			c-1.005-0.43-1.85-1.035-2.521-1.821c-0.661-0.774-1.154-1.695-1.449-2.763c-0.293-1.062-0.33-2.226-0.113-3.489L289.553,71.891z
			 M297.821,78.983h0.114c0.67,0,1.316-0.142,1.931-0.417c0.606-0.283,1.173-0.65,1.678-1.116c0.502-0.467,0.92-1.009,1.258-1.605
			c0.33-0.584,0.551-1.217,0.664-1.891l0.399-2.352c0.151-0.887,0.114-1.645-0.087-2.257c-0.209-0.618-0.56-1.111-1.061-1.485
			c-0.503-0.374-1.107-0.641-1.788-0.813c-0.694-0.166-1.424-0.243-2.21-0.243c-0.709,0-1.41,0.102-2.092,0.33
			c-0.691,0.229-1.317,0.542-1.875,0.947c-0.561,0.417-1.033,0.917-1.422,1.513c-0.399,0.601-0.66,1.262-0.813,2.008l-1.291,7.326
			L297.821,78.983z"/>
		<path fill="#FFFFFF" d="M313.035,84.183c-0.191,0.889-0.182,1.706,0.015,2.421c0.208,0.731,0.551,1.355,1.005,1.881
			c0.476,0.521,1.042,0.914,1.707,1.202c0.679,0.271,1.419,0.418,2.234,0.418c0.379,0,0.85-0.048,1.431-0.146
			c0.577-0.082,1.145-0.189,1.704-0.304c0.671-0.146,1.342-0.309,2.018-0.499l0.444,2.563c-0.785,0.266-1.526,0.478-2.234,0.617
			c-0.638,0.152-1.31,0.287-2.02,0.401c-0.699,0.103-1.326,0.158-1.838,0.158c-1.229,0-2.346-0.206-3.333-0.64
			c-0.985-0.429-1.798-1.036-2.453-1.815c-0.653-0.785-1.117-1.702-1.393-2.773c-0.284-1.063-0.312-2.227-0.096-3.483l2.021-11.692
			c0.215-1.255,0.65-2.42,1.315-3.482c0.644-1.062,1.44-1.967,2.366-2.72c0.93-0.737,1.972-1.322,3.107-1.75
			c1.138-0.438,2.322-0.644,3.542-0.644c0.608,0,1.212,0.075,1.856,0.215c0.626,0.153,1.203,0.325,1.727,0.504
			c0.633,0.19,1.229,0.418,1.787,0.672l-1.059,2.407c-0.523-0.191-1.063-0.354-1.621-0.5c-0.491-0.151-1.004-0.287-1.571-0.389
			c-0.549-0.114-1.1-0.175-1.61-0.175c-0.824,0-1.609,0.142-2.387,0.418c-0.759,0.287-1.46,0.683-2.082,1.204
			c-0.646,0.52-1.196,1.137-1.649,1.846c-0.476,0.704-0.779,1.505-0.928,2.394L313.035,84.183z"/>
		<path fill="#FFFFFF" d="M332.03,85.185l3.183-17.938h-4.754l0.512-2.795h4.745l1.959-11.116h2.956l-1.95,11.116h5.131
			l-0.489,2.795h-5.151l-3.183,18.213c-0.151,0.787-0.17,1.431-0.06,1.936c0.115,0.498,0.332,0.904,0.647,1.228
			c0.319,0.315,0.7,0.538,1.152,0.674c0.437,0.126,0.927,0.188,1.442,0.188h1.229l-0.549,3.022h-1.514
			c-0.93,0-1.761-0.144-2.519-0.416c-0.741-0.288-1.356-0.711-1.842-1.289c-0.484-0.579-0.813-1.339-1.001-2.266
			C331.785,87.612,331.806,86.493,332.03,85.185z"/>
		<path fill="#FFFFFF" d="M359.633,89.714l0.899,1.002l-2.35,2.021l-1.28-1.518c-1.307,0.671-2.623,1.139-3.939,1.403
			c-1.324,0.256-2.366,0.387-3.107,0.387c-1.042,0-1.987-0.218-2.821-0.645c-0.835-0.424-1.533-1.002-2.065-1.734
			c-0.55-0.716-0.917-1.572-1.116-2.535c-0.211-0.975-0.219-1.999-0.041-3.079l0.569-3.124c0.19-1.077,0.551-2.102,1.089-3.051
			c0.543-0.948,1.203-1.782,2.009-2.483c0.806-0.707,1.694-1.27,2.683-1.677c0.985-0.413,2.008-0.613,3.05-0.613
			c0.263,0,0.652,0.018,1.174,0.055c0.521,0.039,1.089,0.108,1.704,0.219c0.616,0.112,1.213,0.274,1.779,0.475
			c0.588,0.206,1.081,0.472,1.487,0.813l0.333-1.901c0.152-0.855,0.152-1.707,0-2.54c-0.151-0.841-0.436-1.593-0.86-2.266
			c-0.429-0.67-0.96-1.209-1.593-1.62c-0.637-0.417-1.365-0.611-2.178-0.611c-0.304,0-0.854,0.092-1.658,0.271
			c-0.797,0.19-1.628,0.379-2.482,0.563c-1.005,0.227-2.085,0.483-3.238,0.786l-0.341-2.628c1.271-0.298,2.442-0.574,3.523-0.84
			c0.93-0.229,1.846-0.429,2.746-0.618c0.891-0.177,1.514-0.275,1.895-0.275c1.194,0,2.265,0.275,3.219,0.834
			c0.949,0.563,1.726,1.301,2.343,2.21c0.614,0.916,1.051,1.962,1.315,3.132c0.255,1.176,0.283,2.366,0.057,3.603L359.633,89.714z
			 M358.685,78.869c0-0.037-0.153-0.163-0.446-0.358c-0.293-0.21-0.712-0.429-1.22-0.676c-0.531-0.245-1.157-0.461-1.915-0.671
			c-0.737-0.196-1.534-0.3-2.396-0.3c-0.635,0-1.26,0.13-1.865,0.386c-0.626,0.265-1.176,0.618-1.687,1.061
			c-0.503,0.444-0.929,0.96-1.287,1.533c-0.349,0.581-0.588,1.204-0.693,1.875l-0.613,3.525c-0.229,1.306,0.028,2.423,0.758,3.38
			c0.72,0.952,1.723,1.422,2.983,1.422c0.559,0,1.222-0.103,1.979-0.304c0.776-0.205,1.508-0.432,2.217-0.698
			c0.813-0.294,1.675-0.634,2.566-1.009L358.685,78.869z"/>
		<path fill="#FFFFFF" d="M384.227,65.568l2.182-12.183h2.794l-6.423,36.384l1.003,1.233l-2.348,1.951l-1.402-1.679
			c-1.307,0.671-2.604,1.122-3.901,1.348c-1.305,0.217-2.348,0.331-3.136,0.331c-1.04,0-1.979-0.206-2.796-0.618
			c-0.813-0.406-1.514-0.963-2.061-1.673c-0.57-0.711-0.949-1.544-1.158-2.514c-0.198-0.976-0.208-1.994-0.02-3.077l2.292-13.181
			c0.189-1.09,0.551-2.104,1.12-3.05c0.549-0.949,1.229-1.794,2.035-2.52c0.806-0.72,1.688-1.29,2.661-1.708
			c0.966-0.406,1.969-0.606,3.012-0.606c0.633,0,1.479,0.055,2.539,0.19C381.681,64.329,382.894,64.783,384.227,65.568z
			 M380.204,88.095l3.408-19.286c-1.115-0.852-2.246-1.399-3.383-1.616c-1.135-0.232-2.016-0.347-2.648-0.347
			c-0.638,0-1.26,0.136-1.878,0.401c-0.616,0.254-1.164,0.607-1.678,1.028c-0.5,0.429-0.918,0.944-1.248,1.54
			c-0.341,0.595-0.569,1.229-0.683,1.9L369.7,85.298c-0.219,1.301,0.027,2.428,0.748,3.381c0.729,0.948,1.723,1.426,2.993,1.426
			c0.342,0,0.849-0.048,1.533-0.146c0.693-0.082,1.403-0.217,2.122-0.383c0.738-0.177,1.384-0.376,1.96-0.621
			C379.634,88.718,380.016,88.424,380.204,88.095z"/>
		<path fill="#FFFFFF" d="M407.585,84.801c-0.294,1.712-0.861,3.082-1.677,4.128c-0.817,1.039-1.731,1.852-2.735,2.434
			c-1.005,0.578-2.019,0.959-3.024,1.146c-1.001,0.19-1.854,0.271-2.563,0.271c-0.712,0-1.525-0.081-2.455-0.271
			c-0.938-0.187-1.798-0.567-2.606-1.146c-0.803-0.582-1.41-1.395-1.847-2.434c-0.426-1.046-0.49-2.416-0.188-4.128l2.236-12.91
			c0.292-1.718,0.851-3.1,1.666-4.141c0.823-1.045,1.723-1.846,2.72-2.404c0.986-0.563,1.98-0.933,2.983-1.122
			c1.003-0.177,1.865-0.275,2.579-0.275c0.697,0,1.532,0.099,2.479,0.275c0.954,0.189,1.818,0.559,2.604,1.122
			c0.786,0.559,1.392,1.359,1.849,2.404c0.443,1.041,0.512,2.423,0.215,4.141L407.585,84.801z M405.074,84.4l2.124-12.125
			c0.226-1.23,0.169-2.204-0.145-2.93c-0.311-0.733-0.747-1.297-1.315-1.681c-0.548-0.39-1.154-0.655-1.818-0.783
			c-0.645-0.127-1.214-0.191-1.707-0.191c-0.47,0-1.078,0.064-1.808,0.191c-0.729,0.128-1.431,0.394-2.13,0.783
			c-0.681,0.384-1.317,0.947-1.894,1.681c-0.58,0.726-0.978,1.699-1.205,2.93L393.054,84.4c-0.215,1.23-0.177,2.204,0.143,2.936
			c0.314,0.731,0.762,1.302,1.308,1.708c0.57,0.406,1.177,0.683,1.848,0.813c0.675,0.124,1.253,0.189,1.734,0.189
			s1.08-0.065,1.79-0.189c0.709-0.13,1.411-0.406,2.121-0.813c0.709-0.406,1.335-0.977,1.904-1.708
			C404.452,86.604,404.847,85.63,405.074,84.4z"/>
	</g>
</g>
</svg>
